<svg width="195" height="54" viewBox="0 0 195 54" fill="none" xmlns="http://www.w3.org/2000/svg">
<g clip-path="url(#clip0_651_155)">
<path d="M157.799 21.225C157.22 22.7228 156.641 24.2205 156.061 25.7183C155.598 26.928 155.105 28.1665 154.612 29.3762C154.178 30.4996 153.743 31.5941 153.309 32.7174C152.729 34.2439 152.121 35.7417 151.512 37.3258C150.383 37.3258 149.311 37.3258 148.21 37.3258C147.92 37.3258 147.833 37.1242 147.775 36.8938C147.138 34.964 146.5 33.0342 145.863 31.1332C145.052 28.7426 144.24 26.3519 143.429 23.9613C143.139 23.0972 142.85 22.2043 142.56 21.3402C142.212 20.3033 141.836 19.2952 141.488 18.2871C141.401 17.9991 141.314 17.6823 141.198 17.279C142.241 17.279 143.168 17.279 144.124 17.279C144.414 17.279 144.501 17.5095 144.559 17.7399C144.849 18.5752 145.11 19.3816 145.399 20.2169C146.153 22.3771 146.906 24.5086 147.659 26.6688C148.296 28.4834 148.934 30.3267 149.542 32.1413C149.629 32.4005 149.687 32.6598 149.832 32.919C150.44 31.9397 150.672 30.8452 151.107 29.8371C151.541 28.829 151.918 27.7921 152.295 26.7552C152.7 25.6895 153.077 24.6526 153.483 23.5869C153.888 22.55 154.294 21.5419 154.67 20.505C155.076 19.468 155.453 18.4023 155.858 17.3078C157.075 17.3078 158.263 17.3078 159.422 17.3078C159.683 17.3078 159.799 17.4807 159.857 17.6823C160.436 19.2088 160.986 20.7354 161.537 22.2907C161.682 22.6652 161.798 23.0396 161.943 23.3852C162.957 26.1503 163.971 28.9154 164.956 31.6805C165.129 32.1125 165.274 32.5446 165.448 33.0054C165.506 33.0054 165.564 33.0054 165.622 33.0054C167.36 27.7921 169.128 22.5788 170.866 17.3654C171.996 17.3654 173.097 17.3654 174.285 17.3654C173.879 18.5176 173.503 19.5833 173.126 20.6778C172.489 22.4924 171.851 24.3069 171.214 26.1503C170.345 28.6274 169.475 31.1044 168.606 33.5815C168.201 34.7336 167.766 35.8569 167.36 37.009C167.244 37.3258 167.071 37.4411 166.752 37.4411C165.767 37.4411 164.811 37.4411 163.826 37.4411C163.536 37.4411 163.362 37.3834 163.246 37.0666C162.377 34.4744 161.508 31.8821 160.61 29.2898C160.03 27.5617 159.422 25.8047 158.813 24.0765C158.524 23.27 158.263 22.4635 158.002 21.6571C157.973 21.5419 157.915 21.4554 157.857 21.369C157.886 21.2538 157.828 21.225 157.799 21.225Z" fill="#ECA806"/>
<path d="M97.9712 11C98.2609 11 98.4927 11 98.7534 11C101.477 11 104.229 11.0288 106.953 11C108.778 10.9712 110.516 11.3456 112.168 12.0081C115.268 13.2754 117.441 15.4932 118.542 18.6904C119.295 20.8794 119.469 23.126 119.353 25.4302C119.266 27.1296 118.918 28.7426 118.339 30.3267C117.643 32.1989 116.456 33.7255 114.862 34.964C113.037 36.4041 110.893 37.0954 108.633 37.4699C107.851 37.6139 107.069 37.6139 106.286 37.6427C103.679 37.6715 101.042 37.6427 98.4347 37.6427C98.2899 37.6427 98.145 37.6139 98.0291 37.6139C97.8553 37.1242 97.7973 11.9793 97.9712 11ZM101.158 34.7912C101.274 34.8488 101.332 34.8776 101.361 34.8776C103.012 34.8488 104.635 34.8488 106.286 34.82C107.851 34.7912 109.357 34.4744 110.777 33.8119C111.994 33.2646 113.037 32.5158 113.877 31.45C115.21 29.7507 115.731 27.7633 115.934 25.6895C116.079 23.9901 115.963 22.2907 115.586 20.6202C115.152 18.7192 114.283 17.0774 112.747 15.8677C111.067 14.5716 109.068 13.9379 106.953 13.8515C105.243 13.7939 103.534 13.8515 101.796 13.8515C101.593 13.8515 101.39 13.8803 101.187 13.9091C101.158 20.8794 101.158 27.8209 101.158 34.7912Z" fill="#ECA806"/>
<path d="M191.813 34.964C191.552 34.964 191.292 34.964 191.002 34.964C187.844 34.964 184.686 34.8776 181.557 34.9928C179.094 35.0792 177.211 32.8902 177.153 30.7588C177.124 28.9442 177.124 27.1296 177.124 25.2862C177.124 23.7309 177.153 22.1467 177.095 20.5914C177.066 19.5257 177.53 18.8056 178.312 18.1719C179.152 17.5094 180.137 17.2214 181.209 17.2214C185.613 17.2214 190.017 17.2214 194.421 17.2214C194.565 17.2214 194.739 17.2502 194.942 17.279C194.971 17.5094 195 17.7111 195 17.9127C195 25.0558 195 32.1989 194.971 39.342C194.971 40.0045 194.826 40.6958 194.565 41.3006C194.189 42.1935 193.407 42.6832 192.45 42.9136C192.161 42.9712 191.842 43 191.552 43C187.119 43 182.687 43 178.283 43C178.109 43 177.935 42.9712 177.703 42.9712C177.703 42.1071 177.703 41.2718 177.703 40.3501C178.022 40.3501 178.283 40.3501 178.544 40.3501C182.281 40.3501 186.019 40.3501 189.727 40.3501C190.017 40.3501 190.335 40.3213 190.625 40.3213C191.234 40.2925 191.552 39.9181 191.697 39.3996C191.784 39.1116 191.842 38.8236 191.842 38.5067C191.871 37.4122 191.842 36.3465 191.842 35.252C191.9 35.1656 191.842 35.108 191.813 34.964ZM191.842 20.1305C191.581 20.1017 191.378 20.0729 191.176 20.0729C188.713 20.0729 186.25 20.0729 183.817 20.0729C183.15 20.0729 182.484 20.1017 181.818 20.1881C180.514 20.3609 180.108 20.8794 180.108 22.1467C180.108 24.4797 180.108 26.8128 180.108 29.117C180.108 29.4626 180.108 29.8083 180.108 30.1539C180.166 31.306 180.746 31.9685 181.904 32.1413C182.165 32.1701 182.397 32.2277 182.658 32.2277C185.497 32.2277 188.307 32.2277 191.147 32.2277C191.378 32.2277 191.581 32.1989 191.842 32.1989C191.842 28.1665 191.842 24.1629 191.842 20.1305Z" fill="#ECA806"/>
<path d="M80.2404 37.3258C80.2404 39.2556 80.2404 41.0702 80.2404 42.9424C79.2263 42.9424 78.2702 42.9424 77.2852 42.9424C77.2852 34.3879 77.2852 25.8623 77.2852 17.2502C77.5749 17.2502 77.8356 17.2502 78.0674 17.2502C82.0077 17.2502 85.9479 17.3078 89.8882 17.2214C92.3798 17.1638 94.6976 19.2664 94.6976 21.9163C94.7266 25.5167 94.6976 29.0882 94.6976 32.6886C94.6976 33.2358 94.6107 33.7831 94.4948 34.3303C94.1471 35.9721 92.9593 36.9514 91.2789 37.2394C90.8153 37.3258 90.3228 37.3546 89.8302 37.3546C86.904 37.3546 84.0068 37.3546 81.0806 37.3546C80.8488 37.3258 80.588 37.3258 80.2404 37.3258ZM80.2983 34.5608C80.5011 34.5896 80.7039 34.6184 80.9067 34.6184C83.2535 34.6184 85.5713 34.6472 87.9181 34.6184C88.7293 34.6184 89.5985 34.532 90.3807 34.3591C91.3078 34.1575 91.8293 33.6391 91.7714 32.6022C91.7134 31.4212 91.7134 30.2115 91.7134 29.0018C91.7134 26.9568 91.7134 24.9118 91.7134 22.8668C91.7134 22.4347 91.6845 21.9739 91.5396 21.5707C91.134 20.505 90.8153 20.1305 89.7143 20.1017C89.5405 20.1017 89.3957 20.1017 89.2218 20.1017C86.4984 20.1017 83.746 20.1017 81.0226 20.1017C80.7908 20.1017 80.559 20.1305 80.2983 20.1305C80.2983 24.9406 80.2983 29.7219 80.2983 34.5608Z" fill="#ECA806"/>
<path d="M135.577 25.3726C135.577 24.6814 135.577 24.1053 135.577 23.5005C135.577 22.8668 135.577 22.2619 135.548 21.6283C135.462 20.649 135.085 20.2457 134.129 20.1881C133.115 20.1017 132.101 20.0729 131.087 20.0729C128.479 20.0441 125.901 20.0729 123.293 20.0729C122.395 20.0729 122.366 20.0153 122.366 19.1224C122.366 18.7192 122.366 18.2871 122.366 17.8839C122.366 17.3366 122.482 17.2502 123.032 17.2214C123.177 17.2214 123.322 17.2214 123.438 17.2214C127.32 17.2214 131.174 17.279 135.056 17.1926C137.258 17.135 138.475 18.8344 138.648 20.3897C138.677 20.7354 138.706 21.081 138.706 21.4266C138.706 26.4383 138.706 31.4788 138.706 36.4906C138.706 36.7498 138.706 36.9802 138.706 37.2682C138.388 37.297 138.185 37.297 137.953 37.297C134.042 37.297 130.131 37.297 126.19 37.297C125.35 37.297 124.539 37.2106 123.786 36.8074C123.09 36.4329 122.598 35.8569 122.279 35.1656C122.163 34.8776 122.105 34.5608 122.076 34.2439C122.047 32.4293 122.105 30.6148 122.047 28.7714C122.018 27.7921 122.453 27.072 123.177 26.5248C123.959 25.8911 124.887 25.5167 125.93 25.4878C127.465 25.4302 129.03 25.4014 130.594 25.4014C132.217 25.3726 133.839 25.3726 135.577 25.3726ZM135.606 34.6184C135.606 32.4581 135.606 30.3843 135.606 28.3393C135.49 28.3105 135.433 28.2817 135.375 28.2817C132.651 28.2817 129.928 28.2529 127.175 28.2817C125.959 28.3105 125.35 28.829 125.176 30.0387C125.06 30.9028 125.031 31.7957 125.089 32.6598C125.176 33.6391 125.988 34.4167 126.944 34.532C127.494 34.5896 128.045 34.6184 128.595 34.6184C130.652 34.6184 132.709 34.6184 134.766 34.6184C135.056 34.6184 135.317 34.6184 135.606 34.6184Z" fill="#ECA806"/>
<path d="M54.86 27.4464C54.86 25.7759 54.8311 24.1341 54.86 22.4635C54.86 21.7435 54.889 21.0234 55.0339 20.3321C55.2077 19.4104 55.7582 18.7192 56.5694 18.2295C57.7862 17.4806 59.148 17.2214 60.5386 17.2214C62.8854 17.1926 65.2322 17.1926 67.55 17.2214C68.7089 17.2502 69.8388 17.3654 70.8818 17.9703C71.8379 18.5176 72.4753 19.2952 72.6781 20.3897C72.765 20.8506 72.8519 21.3402 72.8519 21.8299C72.8519 25.5743 72.8809 29.3474 72.8519 33.0918C72.8519 34.82 71.8958 36.3177 70.0995 36.865C69.0565 37.1818 68.0135 37.2682 66.9705 37.297C65.0583 37.3258 63.1172 37.297 61.205 37.297C59.7853 37.297 58.3947 37.153 57.0619 36.6058C55.8741 36.1161 55.1787 35.252 54.918 34.0135C54.86 33.6679 54.8311 33.2934 54.8311 32.919C54.86 31.1044 54.86 29.2898 54.86 27.4464ZM69.7808 27.6193C69.7808 26.0639 69.7229 24.5374 69.7808 22.982C69.8678 21.1674 68.3902 20.0441 66.8836 20.0729C64.9714 20.1305 63.0882 20.0729 61.176 20.1017C60.6835 20.1017 60.191 20.1593 59.7274 20.2457C58.6554 20.4761 57.8152 21.5131 57.8152 22.6076C57.8152 25.9487 57.8152 29.2898 57.8152 32.631C57.8152 33.351 58.1339 33.8983 58.7713 34.1863C59.2349 34.4167 59.7853 34.5608 60.2779 34.5896C61.205 34.676 62.1321 34.6472 63.0592 34.6472C64.5368 34.6472 66.0144 34.6472 67.492 34.5896C68.9117 34.532 69.7229 33.6391 69.7229 32.2277C69.7808 30.7012 69.7808 29.1746 69.7808 27.6193Z" fill="#ECA806"/>
<path d="M42.1992 14.2259C41.8805 14.2259 41.6198 14.2259 41.359 14.2259C39.244 14.2259 37.129 14.2259 35.043 14.2259C34.8692 14.2259 34.6664 14.2259 34.4925 14.1971C34.2028 14.1683 34 13.9955 34 13.6499C34 13.0162 34 12.4113 34 11.7777C34.029 11.4032 34.1738 11.288 34.5794 11.2304C34.7533 11.2304 34.8981 11.2304 35.072 11.2304C41.1272 11.2304 47.1535 11.2304 53.2087 11.2304C53.4695 11.2304 53.7013 11.2304 53.991 11.2304C53.991 12.2385 53.991 13.1602 53.991 14.1971C53.0349 14.1971 52.1078 14.1971 51.1807 14.1971C50.2246 14.1971 49.2685 14.1971 48.3414 14.1971C47.3853 14.1971 46.4582 14.1971 45.4152 14.1971C45.4152 14.5428 45.3862 14.8308 45.3862 15.1188C45.3862 22.2619 45.3862 29.405 45.3862 36.5482C45.3862 36.721 45.3862 36.9226 45.3862 37.0954C45.3572 37.5274 45.0965 37.8443 44.6619 37.8443C44.0824 37.8731 43.503 37.8731 42.9235 37.8443C42.5179 37.8155 42.2572 37.5563 42.2282 37.1242C42.2282 36.9514 42.2282 36.7498 42.2282 36.577C42.2282 29.4338 42.2282 22.2907 42.2282 15.1476C42.1992 14.9172 42.1992 14.6292 42.1992 14.2259Z" fill="#ECA806"/>
</g>
<g clip-path="url(#clip1_651_155)">
<path d="M25.3487 26.3821C25.3487 26.3821 26.1273 32.1799 24.4599 33.2041C23.0465 34.0674 22.09 33.0687 22.09 33.0687C22.09 33.0687 25.4841 34.8461 25.3487 26.3821Z" fill="#2D2D2D"/>
<path d="M24.1807 31.6975C24.1807 31.6975 23.6644 29.3699 22.234 30.2163C21.0913 30.8934 17.6719 36.3018 12.1703 32.0868C12.1703 32.0868 11.18 31.5959 11.0615 31.3081C10.4267 29.81 8.59853 25.6627 7.31201 24.1815C7.31201 24.1815 8.83552 25.5865 11.2901 30.2417C11.4847 30.6056 11.7217 30.9442 12.1111 31.105C12.8559 31.4182 13.897 32.1122 14.8111 32.5439C15.6744 32.9586 16.817 33.1533 18.9669 31.9006C19.9064 31.3589 21.0151 30.2586 22.1239 29.4969C23.9352 28.278 24.1807 31.6975 24.1807 31.6975Z" fill="#2D2D2D"/>
<path d="M23.7658 31.8329C23.7658 31.8329 22.8432 33.0433 19.9147 32.7724C19.9147 32.7724 20.5664 32.3323 21.1589 31.8329C21.6244 31.4436 22.0222 30.995 22.2592 30.7834C22.911 30.157 23.8251 31.2997 23.7658 31.8329Z" fill="#2D2D2D"/>
<path d="M20.4309 20.4489C20.4309 20.4489 16.9692 18.4768 16.7491 16.2085C16.7491 16.2085 16.9946 17.6727 19.6184 19.1962C19.6184 19.1962 18.4419 18.2229 18.5858 17.5542C19.2883 18.9 22.1745 19.6194 23.8419 20.3981C25.5347 21.1853 26.4911 22.6919 25.7547 23.953C25.6616 24.1138 25.4331 24.1646 25.2977 24.0292C25.23 23.9699 25.1792 23.8853 25.1707 23.7752C25.1369 23.3605 25.4754 23.2251 25.2638 22.895C25.0522 22.5649 24.6375 22.8019 24.5529 23.589C24.4851 24.2408 25.0353 24.3254 25.5939 24.1815C25.6786 24.5793 25.9071 26.1028 24.6375 26.3398C24.4682 26.3737 24.3159 26.4668 24.2058 26.6022C23.8842 27 23.3002 27.8718 23.2409 28.9298L22.9616 27.2709C22.9193 27.0254 22.75 26.8138 22.5215 26.7292C21.9798 26.526 21.1588 26.0097 21.0488 24.6724C21.0488 24.6724 20.8287 24.1815 22.0645 24.1731C22.4877 24.1731 22.8939 23.9361 23.0717 23.5552C23.1986 23.2843 23.2071 22.9796 22.8516 22.7088C22.0306 22.0825 22.0306 24.5793 20.8203 23.8768C19.6099 23.1743 19.5337 22.0063 19.0259 22.4718C19.0259 22.4718 19.0682 21.7524 19.8046 21.964C20.5494 22.1756 20.8033 21.5746 18.535 20.4997C16.2751 19.4248 15.2002 17.495 15.2002 17.495C15.2002 17.495 16.766 19.9072 20.4309 20.4489Z" fill="#2D2D2D"/>
<path d="M13.9386 24.8925C12.322 28.6843 14.7935 27.237 14.7935 27.237C14.0486 29.9878 18.2637 30.2417 18.2637 30.2417C12.8383 31.1812 9.83359 22.9035 9.83359 22.9035C12.4236 28.4981 13.9386 24.8925 13.9386 24.8925Z" fill="#2D2D2D"/>
<path d="M24.6123 24.6809C24.6123 24.6809 24.1045 26.1451 23.3596 26.0436C23.3596 26.0436 22.6825 25.8912 22.0816 24.6809C22.0816 24.6809 22.3355 25.7389 23.0973 26.2298C23.1734 26.2806 23.2242 26.3652 23.2242 26.4583L23.2581 27.711L23.4443 26.4922C23.4612 26.3991 23.5289 26.3144 23.622 26.2721C23.8759 26.1621 24.4092 25.8066 24.6123 24.6809Z" fill="white"/>
<path d="M14.0579 16.2085C14.0579 16.2085 14.6927 14.8288 13.5839 15.1081C12.4667 15.379 12.4075 16.1323 11.5272 16.2085C10.647 16.2846 9.71592 16.9618 9.50433 17.4865C9.50433 17.4865 9.69053 15.9799 11.4087 15.7599C13.1607 15.5313 13.0761 14.1179 14.1849 14.7103C15.0059 15.142 14.0579 16.2085 14.0579 16.2085Z" fill="#2D2D2D"/>
<path d="M13.5918 18.4683C13.5918 18.4683 13.2025 18.0198 13.0416 17.6812C12.8893 17.3596 12.4576 16.4031 11.4335 17.3172C10.4686 18.1806 9.49524 18.0536 9.49524 18.0536L10.6379 18.2906C10.6379 18.2906 11.6366 19.5602 12.7115 18.5022C12.8808 18.3329 13.1347 18.2821 13.3548 18.3837C13.4394 18.4091 13.5156 18.4345 13.5918 18.4683Z" fill="#2D2D2D"/>
<path d="M12.7539 18.0198C12.7539 18.0198 12.3222 19.2301 11.1288 18.2483C11.1204 18.2398 12.1868 18.9423 12.7539 18.0198Z" fill="white"/>
<path d="M12.3138 17.6558C12.239 17.6558 12.1784 17.5952 12.1784 17.5204C12.1784 17.4456 12.239 17.3849 12.3138 17.3849C12.3886 17.3849 12.4492 17.4456 12.4492 17.5204C12.4492 17.5952 12.3886 17.6558 12.3138 17.6558Z" fill="white"/>
<path d="M11.7127 11.6379C12.1782 11.6464 12.7453 11.4517 12.94 11.037C13.3039 10.2668 13.9218 9.06489 14.5143 8.47241C15.4369 7.56677 17.0789 3.45329 16.8165 1.65047C16.7234 1.01567 16.5541 0.00846301 17.1381 0.567084C17.7221 1.1257 18.8732 2.55611 17.1381 8.20157C15.3945 13.8639 20.5914 15.0066 20.8876 17.0972C20.8876 17.0972 20.9215 18.0028 20.5999 18.7392C20.5999 18.7392 19.982 18.6292 19.5842 18.3414C19.0256 17.9436 18.467 17.0549 19.9735 16.6317C19.9735 16.6317 20.5406 16.6147 18.9917 15.2097C17.8322 14.1602 17.2228 13.3392 16.9942 13.0006C16.9011 12.8652 16.7826 12.7467 16.6472 12.6536C16.3256 12.442 15.7331 12.1034 15.2083 12.1204C15.2083 12.1204 15.7754 11.9426 16.2748 12.095C16.2748 12.095 16.0293 9.7674 16.5541 8.07461C17.0789 6.37335 17.8152 3.71567 17.3582 2.16677C17.3582 2.16677 17.0619 5.01912 16.0378 7.15204C15.0137 9.28495 14.8105 11.9257 14.8105 11.9257C14.8105 11.9257 14.2434 11.7564 12.6268 11.8749C12.6268 11.8749 13.6425 12.4759 14.6159 13.8301C14.6159 13.8301 13.177 12.1965 11.8735 12.0188C11.4842 11.968 10.1723 11.8495 9.29203 11.8918C9.29203 11.8918 10.4854 11.6125 11.7127 11.6379Z" fill="#2D2D2D"/>
<path d="M20.5918 17.4865C20.5918 17.4865 20.4902 18.8323 19.5084 17.8843C19.5169 17.8928 20.2617 18.5276 20.5918 17.4865Z" fill="white"/>
<path d="M20.0586 17.1987C20.0586 17.2749 20.1178 17.3257 20.1855 17.3257C20.2617 17.3257 20.3125 17.2665 20.3125 17.1987C20.3125 17.1226 20.2533 17.0718 20.1855 17.0718C20.1178 17.0633 20.0586 17.1226 20.0586 17.1987Z" fill="white"/>
<path d="M18.4671 16.9618C18.4671 16.9618 17.7815 14.9389 18.9072 15.5906C18.9072 15.5906 17.1552 14.1602 18.4671 16.9618Z" fill="#2D2D2D"/>
<path d="M9.10589 11.5194C9.10589 11.5194 9.34289 7.94765 8.32721 5.78088C7.31153 3.61411 8.9874 0.880251 8.32721 0.118496C7.66702 -0.643259 5.63567 2.51379 4.93316 5.51849C4.24758 8.43856 0.650389 11.4433 2.53785 16.4539C2.63942 16.7248 2.63942 17.0295 2.51246 17.3003C1.82688 18.8154 -0.272183 24.3169 2.0808 30.2671C2.0808 30.2671 1.73378 39.8483 2.66481 42.7345C3.60431 45.6207 9.91844 49.8696 10.6209 54.0169C10.6209 54.0169 11.0865 51.4015 6.79523 46.7294C2.68174 42.252 3.4435 41.6765 3.20651 38.7141C2.98645 35.9464 2.65635 30.2755 2.65635 30.2755C2.65635 30.2755 3.79052 25.942 3.47736 23.7752C3.47736 23.7752 3.14726 27.2793 2.31779 28.7182C2.31779 28.7182 1.09898 22.6749 2.83409 18.6122C2.96952 18.2906 3.37579 18.7138 3.5366 19.0185L4.4761 21.2022C4.4761 21.2022 3.41811 16.9618 3.37579 16.784C2.75792 14.1179 2.44475 12.6028 4.22219 9.3442C5.93191 6.20407 6.46514 2.69154 7.18457 2.36991C7.18457 2.36991 6.60056 5.25611 6.91373 6.06019C7.22689 6.86426 8.14947 10.7492 6.41435 12.6367C5.84727 13.2461 3.79052 14.5326 4.06137 15.6922C4.06137 15.6922 4.6877 14.0078 6.94758 13.2799C9.22439 12.5436 9.10589 11.5194 9.10589 11.5194Z" fill="#2D2D2D"/>
<path d="M4.30733 25.2818C4.30733 25.2818 6.36407 30.8934 10.2744 30.6903C10.2744 30.6903 6.15247 32.874 4.30733 25.2818Z" fill="#2D2D2D"/>
<path d="M17.5698 33.9066C17.5698 33.9066 18.4501 35.8279 18.8394 36.9282C19.3642 38.4348 17.9169 40.5931 15.3607 42.5906C12.8046 44.5881 10.6463 47.4743 10.6463 51.2746C10.6463 51.2746 9.71529 46.5856 13.4056 43.0815C16.4357 40.1784 18.7209 38.0031 18.2723 36.6912C18.0269 35.9718 17.5698 33.9066 17.5698 33.9066Z" fill="#2D2D2D"/>
<path d="M12.8136 41.5157C12.8136 41.5157 12.5682 39.2981 13.2199 37.5038C13.8632 35.7348 13.5246 33.6781 12.9068 34.2367C11.6287 35.3878 11.8149 39.4674 8.88638 40.8132C8.88638 40.8132 10.6638 39.6875 11.3663 36.4458C12.0688 33.1956 13.0506 32.8401 13.7447 33.6865C14.0578 34.0674 14.4726 35.1 13.9817 36.6828C13.4823 38.2571 13.0676 39.095 12.8136 41.5157Z" fill="#2D2D2D"/>
<path d="M9.69026 18.7476C9.69026 18.7476 10.9598 21.5154 13.2959 21.0668C13.2959 21.0668 10.9175 22.6919 9.69026 18.7476Z" fill="#2D2D2D"/>
<path d="M15.1159 14.9473C15.1159 14.9473 16.0724 16.5216 14.3542 16.7417C14.3542 16.7417 16.4532 17.1649 15.1159 14.9473Z" fill="#2D2D2D"/>
<path d="M20.8714 27.821C20.8714 27.9057 20.9476 27.9734 21.0407 27.9734C21.1338 27.9734 21.21 27.9057 21.21 27.821C21.21 27.7364 21.1338 27.6687 21.0407 27.6687C20.9476 27.6687 20.8714 27.7364 20.8714 27.821Z" fill="#2D2D2D"/>
<path d="M20.11 27.8464C20.11 27.9395 20.1946 28.0157 20.2962 28.0157C20.3978 28.0157 20.4824 27.9395 20.4824 27.8464C20.4824 27.7533 20.3978 27.6771 20.2962 27.6771C20.1946 27.6771 20.11 27.7533 20.11 27.8464Z" fill="#2D2D2D"/>
<path d="M19.2803 27.8379C19.2803 27.9395 19.3734 28.0241 19.4834 28.0241C19.5934 28.0241 19.6865 27.9395 19.6865 27.8379C19.6865 27.7364 19.5934 27.6517 19.4834 27.6517C19.3734 27.6517 19.2803 27.7364 19.2803 27.8379Z" fill="#2D2D2D"/>
<path d="M18.375 27.821C18.375 27.9395 18.4765 28.0326 18.6035 28.0326C18.7305 28.0326 18.832 27.9395 18.832 27.821C18.832 27.7025 18.7305 27.6094 18.6035 27.6094C18.485 27.6094 18.375 27.7025 18.375 27.821Z" fill="#2D2D2D"/>
<path d="M17.5706 28.0241C17.4257 28.0241 17.3082 27.9143 17.3082 27.7787C17.3082 27.6431 17.4257 27.5332 17.5706 27.5332C17.7155 27.5332 17.833 27.6431 17.833 27.7787C17.833 27.9143 17.7155 28.0241 17.5706 28.0241Z" fill="#2D2D2D"/>
<path d="M20.4229 28.4727C20.4398 28.5574 20.5245 28.6166 20.6176 28.5997C20.7107 28.5828 20.7699 28.5066 20.753 28.4219C20.736 28.3373 20.6514 28.2781 20.5583 28.295C20.4652 28.3119 20.4144 28.3881 20.4229 28.4727Z" fill="#2D2D2D"/>
<path d="M19.6862 28.5997C19.7031 28.6928 19.7962 28.7605 19.8978 28.7436C19.9994 28.7267 20.0671 28.642 20.0501 28.5489C20.0332 28.4558 19.9401 28.3881 19.8385 28.405C19.737 28.422 19.6693 28.5066 19.6862 28.5997Z" fill="#2D2D2D"/>
<path d="M18.8658 28.7182C18.8827 28.8197 18.9928 28.8874 19.1028 28.8705C19.2128 28.8536 19.289 28.7605 19.2721 28.6505C19.2551 28.5489 19.1451 28.4812 19.0351 28.4981C18.925 28.5151 18.8489 28.6166 18.8658 28.7182Z" fill="#2D2D2D"/>
<path d="M17.9688 28.8282C17.9857 28.9467 18.1042 29.0229 18.2312 29.006C18.3581 28.989 18.4428 28.879 18.4174 28.7605C18.392 28.642 18.2819 28.5658 18.155 28.5828C18.028 28.6082 17.9434 28.7182 17.9688 28.8282Z" fill="#2D2D2D"/>
<path d="M20.4732 27.2624C20.4648 27.347 20.5325 27.4232 20.6256 27.4317C20.7187 27.4401 20.8033 27.3809 20.8118 27.2962C20.8202 27.2116 20.7525 27.1354 20.6594 27.127C20.5663 27.1185 20.4817 27.1778 20.4732 27.2624Z" fill="#2D2D2D"/>
<path d="M19.7203 27.2031C19.7118 27.2962 19.7795 27.3809 19.8811 27.3978C19.9827 27.4147 20.0758 27.3386 20.0842 27.2455C20.0927 27.1524 20.025 27.0677 19.9234 27.0508C19.8219 27.0423 19.7288 27.11 19.7203 27.2031Z" fill="#2D2D2D"/>
<path d="M18.8909 27.1185C18.8825 27.2201 18.9587 27.3132 19.0687 27.3301C19.1787 27.3386 19.2803 27.2709 19.2972 27.1608C19.3057 27.0593 19.2295 26.9662 19.1195 26.9492C19.0094 26.9323 18.9079 27.0085 18.8909 27.1185Z" fill="#2D2D2D"/>
<path d="M17.9931 27C17.9762 27.1185 18.0693 27.2201 18.1962 27.237C18.3232 27.2539 18.4332 27.1693 18.4502 27.0508C18.4671 26.9323 18.374 26.8307 18.247 26.8138C18.1285 26.7969 18.01 26.8815 17.9931 27Z" fill="#2D2D2D"/>
<path d="M5.17022 9.12414C5.81348 9.82665 5.91504 10.6476 5.91504 10.6476C5.91504 10.6476 6.61755 10.2075 6.35517 8.83636C6.15203 7.76144 6.29592 7.44828 6.39749 7.10125C6.32978 7.40596 6.30438 7.92226 6.54137 8.69248C6.87993 9.78432 6.39749 11.2994 5.54263 12.7213C6.12664 11.2232 5.17022 9.12414 5.17022 9.12414Z" fill="#2D2D2D"/>
</g>
<defs>
<clipPath id="clip0_651_155">
<rect width="161" height="32" fill="white" transform="translate(34 11)"/>
</clipPath>
<clipPath id="clip1_651_155">
<rect width="25.011" height="54" fill="white" transform="matrix(-1 0 0 1 26 0)"/>
</clipPath>
</defs>
</svg>
